<?xml version="1.0" encoding="UTF-8"?>
<svg width="128px" height="128px" viewBox="0 0 128 128" version="1.1" xmlns="http://www.w3.org/2000/svg" xmlns:xlink="http://www.w3.org/1999/xlink">
    <title>Group 2</title>
    <g id="Illustrations" stroke="none" stroke-width="1" fill="none" fill-rule="evenodd">
        <g id="readymade-and-headless" transform="translate(-756.000000, -731.000000)">
            <g id="lede-copy-7" transform="translate(100.000000, 671.000000)">
                <g id="Group-2" transform="translate(656.000000, 60.000000)">
                    <path d="M0,0 L128,0 L128,128 L0,128 L0,0 Z" id="Rectangle"></path>
                    <g id="headless_icon-(1)" transform="translate(1.000000, 2.000000)">
                        <rect id="Rectangle" fill="#6D8EA1" fill-rule="nonzero" transform="translate(97.000490, 8.607772) rotate(-30.000000) translate(-97.000490, -8.607772) " x="95.0004896" y="2.60777208" width="4" height="12"></rect>
                        <rect id="Rectangle" fill="#2B5A76" fill-rule="nonzero" transform="translate(104.999693, 22.464420) rotate(-30.000000) translate(-104.999693, -22.464420) " x="86.9996928" y="18.4644201" width="36" height="8" rx="2"></rect>
                        <path d="M100.001718,10.1998402 L112.001718,10.1998402 C116.419996,10.1998402 120.001718,13.7815622 120.001718,18.1998402 L120.001718,38.1998402 L92.0017182,38.1998402 L92.0017182,18.1998402 C92.0017182,13.7815622 95.5834402,10.1998402 100.001718,10.1998402 Z" id="Path" fill="#C8D6DC" fill-rule="nonzero" transform="translate(106.001718, 24.199840) rotate(-30.000000) translate(-106.001718, -24.199840) "></path>
                        <rect id="Rectangle" fill="#FFFFFF" fill-rule="nonzero" transform="translate(109.499807, 30.258222) rotate(-30.000000) translate(-109.499807, -30.258222) " x="103.499807" y="28.2582221" width="12" height="4" rx="2"></rect>
                        <circle id="Oval" fill="#2B5A76" fill-rule="nonzero" cx="111.928" cy="18.464" r="2"></circle>
                        <circle id="Oval" fill="#2D786E" fill-rule="nonzero" cx="106" cy="24.196" r="2"></circle>
                        <circle id="Oval" fill="#2B5A76" fill-rule="nonzero" cx="98.072" cy="26.464" r="2"></circle>
                        <path d="M98.464,3.144 L91.536,7.144 L90.536,5.412 C90.2704781,4.95255223 90.1984313,4.40641647 90.3357213,3.89382932 C90.4730114,3.38124217 90.8083826,2.94422824 91.268,2.679 L94.732,0.679 C95.1914789,0.413878502 95.7374639,0.342161513 96.2498242,0.47962861 C96.7621845,0.617095707 97.1989424,0.952484193 97.464,1.412 L98.464,3.144 Z" id="Path" fill="#2B5A76" fill-rule="nonzero"></path>
                        <rect id="Rectangle" fill="#2B5A76" fill-rule="nonzero" transform="translate(97.000490, 8.607772) rotate(-30.000000) translate(-97.000490, -8.607772) " x="91.0004896" y="7.60777208" width="12" height="2" rx="1"></rect>
                        <path d="M70,123 L62,123 L62,101 C62,98.790861 60.209139,97 58,97 L46,97 C43.790861,97 42,98.790861 42,101 L42,123 L34,123 L34,101 C34.0071648,94.375553 39.375553,89.0071648 46,89 L58,89 C64.624447,89.0071648 69.9928352,94.375553 70,101 L70,123 Z" id="Path" fill="#2B5A76" fill-rule="nonzero"></path>
                        <path d="M26,125 L26,123 C26,121.895431 26.8954305,121 28,121 L42,121 L42,125 L26,125 Z" id="Path" fill="#A1B6C4" fill-rule="nonzero"></path>
                        <path d="M58,89 L46,89 C43.8855717,89.0006103 41.8094425,89.5642544 39.985,90.633 L43.585,97.833 C44.2758381,97.296105 45.1250695,97.0031817 46,97 L58,97 C58.8749305,97.0031817 59.7241619,97.296105 60.415,97.833 L64.015,90.633 C62.1905575,89.5642544 60.1144283,89.0006103 58,89 L58,89 Z" id="Path" fill="#2B5A76" fill-rule="nonzero" opacity="0.3" style="mix-blend-mode: multiply;"></path>
                        <path d="M78,125 L78,123 C78,121.895431 77.1045695,121 76,121 L62,121 L62,125 L78,125 Z" id="Path" fill="#A1B6C4" fill-rule="nonzero"></path>
                        <rect id="Rectangle" fill="#2D786E" fill-rule="nonzero" transform="translate(38.000000, 112.500000) rotate(180.000000) translate(-38.000000, -112.500000) " x="34" y="110" width="8" height="5"></rect>
                        <rect id="Rectangle" fill="#2D786E" fill-rule="nonzero" x="62" y="110" width="8" height="5"></rect>
                        <path d="M92.866,42.306 L100.066,42.306 C101.439953,42.3060702 102.790733,41.9520157 103.988,41.278 L111.172,37.238" id="Path" stroke="#2B5A76" stroke-width="4" stroke-linecap="round"></path>
                        <path d="M14,90 L6,90 L6,79 C6.01046962,70.1677843 13.1677843,63.0104696 22,63 L34,63 L34,71 L22,71 C17.5837781,71.0049599 14.0049599,74.5837781 14,79 L14,90 Z" id="Path" fill="#2B5A76" fill-rule="nonzero"></path>
                        <path d="M82,71 L70,71 L70,63 L82,63 C86.4162219,62.9950401 89.9950401,59.4162219 90,55 L90,43 L98,43 L98,55 C97.9895304,63.8322157 90.8322157,70.9895304 82,71 L82,71 Z" id="Path" fill="#2B5A76" fill-rule="nonzero"></path>
                        <path d="M86.764,61.412 C85.3894131,62.4423997 83.7179093,62.9995676 82,63 L70,63 L70,71.0000047 L82,71.0000047 C83.6155716,71.0012453 85.2219372,70.7567837 86.764,70.275 L86.764,61.412 Z" id="Path" fill="#2B5A76" fill-rule="nonzero" opacity="0.3" style="mix-blend-mode: multiply;"></path>
                        <path d="M15.738,103.223 C15.0306139,103.222931 14.3860422,102.816908 14.0804893,102.178918 C13.7749364,101.540927 13.8626329,100.784199 14.306,100.233 C16.1117008,97.9775814 15.8710884,94.710973 13.7544087,92.7444697 C11.637729,90.7779665 8.36227103,90.7779665 6.24559131,92.7444697 C4.12891159,94.710973 3.88829925,97.9775814 5.694,100.233 C6.13401073,100.742256 6.26068976,101.451194 6.02427325,102.08132 C5.78785674,102.711446 5.22611265,103.162095 4.55971315,103.256237 C3.89331366,103.35038 3.22871725,103.072976 2.827,102.533 C-0.185493572,98.774799 0.213500792,93.3285878 3.74154864,90.0495528 C7.26959649,86.7705178 12.7304035,86.7705178 16.2584514,90.0495528 C19.7864992,93.3285878 20.1854936,98.774799 17.173,102.533 C16.8242882,102.969008 16.2963034,103.222882 15.738,103.223 Z" id="Path" fill="#2B5A76" fill-rule="nonzero"></path>
                        <path d="M14,85 L6,85 L6,91 C6,93.209139 7.790861,95 10,95 C12.209139,95 14,93.209139 14,91 L14,85 Z" id="Path" fill="#A1B6C4" fill-rule="nonzero"></path>
                        <path d="M90,49 L98,49 L98,43 C98,40.790861 96.209139,39 94,39 C91.790861,39 90,40.790861 90,43 L90,49 Z" id="Path" fill="#A1B6C4" fill-rule="nonzero"></path>
                        <path d="M58,83 L58,97 C58,99.209139 56.209139,101 54,101 L50,101 C47.790861,101 46,99.209139 46,97 L46,83 L58,83 Z" id="Path" fill="#A1B6C4" fill-rule="nonzero"></path>
                        <rect id="Rectangle" fill="#2B5A76" fill-rule="nonzero" transform="translate(52.002000, 44.000000) rotate(-180.000000) translate(-52.002000, -44.000000) " x="44.002" y="41" width="16" height="6"></rect>
                        <rect id="Rectangle" fill="#2B5A76" fill-rule="nonzero" opacity="0.3" style="mix-blend-mode: multiply;" transform="translate(56.002000, 44.000000) rotate(-180.000000) translate(-56.002000, -44.000000) " x="52.002" y="41" width="8" height="6"></rect>
                        <path d="M16.1,64.142 L19.7,71.342 C20.4457642,71.1159035 21.2207161,71.0006715 22,71 L34,71 L34,63 L22,63 C19.9785999,63.0019497 17.976133,63.3895458 16.1,64.142 L16.1,64.142 Z" id="Path" fill="#2B5A76" fill-rule="nonzero" opacity="0.3" style="mix-blend-mode: multiply;"></path>
                        <polygon id="Path" fill="#A1B6C4" fill-rule="nonzero" points="30 75 25 75 19 59 30 59"></polygon>
                        <polygon id="Path" fill="#A1B6C4" fill-rule="nonzero" points="74 75 79 75 85 59 74 59"></polygon>
                        <path d="M70.438,52.625 L65.023,49.015 C63.0518596,47.701076 60.7359219,47 58.367,47 L45.633,47 C43.2640781,47 40.9481404,47.701076 38.977,49.015 L33.562,52.625 C31.3366809,54.1087385 30,56.6063926 30,59.281 L30,83 C30,85.209139 31.790861,87 34,87 L70,87 C72.209139,87 74,85.209139 74,83 L74,59.281 C74,56.6063926 72.6633191,54.1087385 70.438,52.625 Z" id="Path" fill="#C8D6DC" fill-rule="nonzero"></path>
                        <circle id="Oval" stroke="#8E5A95" stroke-width="4" cx="52" cy="67" r="9"></circle>
                        <circle id="Oval" fill="#2B5A76" fill-rule="nonzero" cx="10" cy="90" r="1.5"></circle>
                        <circle id="Oval" fill="#2B5A76" fill-rule="nonzero" cx="94" cy="44" r="1.5"></circle>
                    </g>
                </g>
            </g>
        </g>
    </g>
</svg>