<?xml version="1.0"?><svg width="640" height="480" xmlns="http://www.w3.org/2000/svg">
 <title>ninja goat</title>
 <g>
  <path d="m342.355927,231.981476c0,74.581055 -96.202576,135.110535 -142.830795,135.110535c-44.88588,0 -142.830872,-60.52948 -142.830872,-135.110535c0,-74.580948 42.977852,-135.110458 142.830872,-135.110458c99.870041,0 142.830795,60.529495 142.830795,135.110458z" id="path3236" stroke-miterlimit="4" stroke-linejoin="round" stroke-linecap="round" stroke-width="4" fill-rule="nonzero" fill-opacity="0.313725" fill="#000000"/>
  <path opacity="0.85" d="m403.813843,278.232391c0.031525,99.896118 -85.568787,180.893616 -191.173019,180.893616c-105.60421,0 -191.204533,-80.997498 -191.173033,-180.893616c-0.0315,-99.896072 85.568823,-180.893639 191.173033,-180.893639c105.604233,0 191.204544,80.997566 191.173019,180.893639z" id="path2383" stroke-miterlimit="4" stroke-linejoin="round" stroke-linecap="round" stroke-width="5" stroke="#000000" fill-rule="nonzero" fill="#000000"/>
  <path d="m342.747162,158.925598l-3.27243,4.385361c0.434387,5.077469 0.599945,10.240265 0.599945,15.477707c0,74.581024 -96.212921,135.1203 -142.841217,135.1203c-36.137665,0.000031 -106.631577,-39.219482 -132.751221,-93.433701c13.291809,66.444778 99.781647,117.836899 141.150452,117.836868c46.628296,0 142.841187,-60.539307 142.841187,-135.1203c0,-15.505005 -1.876831,-30.394531 -5.726715,-44.266235z" id="path3231" stroke-miterlimit="4" stroke-linejoin="round" stroke-linecap="round" stroke-width="4" fill-rule="nonzero" fill-opacity="0.313725" fill="#000000" transform="rotate(8.57195 206.478 248.619)"/>
  <path d="m207.99675,63.1231c-52.584305,1.008057 -88.89061,19.239006 -111.044167,47.464943c-41.999454,-4.272346 -76.901913,39.003799 -76.901913,39.003799c0,0 32.970528,15.595459 55.958416,2.52803c-4.187355,14.382675 -6.217598,29.89212 -6.217598,46.07196c0,74.581024 97.955368,135.1203 142.841202,135.1203c46.628296,0 142.841187,-60.539276 142.841187,-135.1203c0,-16.17984 -2.031342,-31.689285 -6.21759,-46.07196c22.987885,13.067429 55.9039,-2.52803 55.9039,-2.52803c0,0 -34.855621,-43.262535 -76.847382,-39.003799c-22.796417,-29.048546 -60.575043,-47.464943 -115.680115,-47.464943c-1.560211,0 -3.103455,-0.029381 -4.635941,0z" id="path3155" stroke-miterlimit="4" stroke-linejoin="round" stroke-linecap="round" stroke-width="4" stroke="#000000" fill-rule="nonzero" fill="#3f3f3f" transform="rotate(13.1144 212.605 198.211)"/>
  <ellipse transform="rotate(8.01811 217.843 173.105)" ry="51.440331" rx="131.64912" id="svg_1" cy="173.104538" cx="217.843116" stroke-width="5" stroke="#000000" fill="#8c8585"/>
  <path d="m392.258545,216.191772c0.134003,2.776199 0.21817,5.602203 0.21817,8.409531c0,99.823807 -85.636169,180.831131 -191.163971,180.831131c-82.486275,0 -152.872166,-49.527435 -179.655945,-118.817139c4.63114,95.940582 88.440277,172.473175 191.000336,172.473175c105.527832,0 191.16394,-81.007324 191.16394,-180.831116c0,-21.796265 -4.080688,-42.710312 -11.562531,-62.065582z" id="path3221" stroke-miterlimit="4" stroke-linejoin="round" stroke-linecap="round" stroke-width="4" fill-rule="nonzero" fill-opacity="0.313725" fill="#000000"/>
  <path d="m226.919769,460.781555c0,15.008423 25.595291,15.488159 57.132294,15.488159c31.537048,0 57.132355,1.144897 57.132355,-15.488159c0,-29.24823 -25.595306,-52.985931 -57.132355,-52.985931c-31.537003,0 -57.132294,23.737701 -57.132294,52.985931z" id="path3172" stroke-miterlimit="4" stroke-linejoin="round" stroke-linecap="round" stroke-width="4" stroke="#000000" fill-rule="nonzero" fill="#332e2e"/>
  <path d="m119.672096,305.522095c13.528419,29.607025 19.831551,38.511841 19.430473,55.451477c-0.182678,7.716064 16.030945,-12.607147 17.155289,-22.764313c-0.825882,14.669769 2.091888,18.678436 3.807388,33.854645c1.71553,15.176208 7.406677,41.509186 9.059097,35.605774c3.431076,-12.257721 5.037247,-37.672913 14.446365,-45.528625c4.258255,15.176208 26.03035,40.657776 22.4375,30.936066c-8.723526,-23.604218 -11.931015,-34.919861 -4.288818,-49.614502c13.674286,15.70755 21.497223,22.209381 18.870819,13.425079c-4.431854,-14.822723 1.876923,-35.184357 13.36499,-43.777496c14.582733,-10.908173 -114.283104,-8.171875 -114.283104,-7.588104z" id="path3203" stroke-miterlimit="4" stroke-linejoin="round" stroke-width="4" stroke="#000000" fill-rule="evenodd" fill="#3f3f3f" transform="rotate(11.2243 177.389 356.654)"/>
  <path d="m306.026031,475.277588c0,-27.022095 -16.480469,-43.651123 -16.480469,-43.651123c0,0 6.592194,22.864838 5.49353,43.651123l10.986938,0z" id="path3174" stroke-miterlimit="4" stroke-linejoin="round" stroke-width="4" stroke="#000000" fill-rule="evenodd" fill-opacity="0.313725" fill="#000000"/>
  <path d="m206.307404,166.40239c0.006531,20.668182 -17.703934,37.426315 -39.553116,37.426315c-21.849182,0 -39.559608,-16.758133 -39.553101,-37.426315c-0.006508,-20.668167 17.703918,-37.426331 39.553101,-37.426331c21.849182,0 39.559647,16.758163 39.553116,37.426331z" id="path3157" stroke-miterlimit="4" stroke-linejoin="round" stroke-linecap="round" stroke-width="5.88889" stroke="#000000" fill-rule="nonzero" fill="#ffffff" transform="rotate(15.1456 166.754 166.402)"/>
  <path d="m298.341888,178.40239c0.0065,20.668182 -17.703949,37.426315 -39.553131,37.426315c-21.849213,0 -39.559616,-16.758133 -39.553101,-37.426315c-0.006516,-20.668167 17.703888,-37.426331 39.553101,-37.426331c21.849182,0 39.559631,16.758163 39.553131,37.426331z" id="path3159" stroke-miterlimit="4" stroke-linejoin="round" stroke-linecap="round" stroke-width="5.88889" stroke="#000000" fill-rule="nonzero" fill="#ffffff"/>
  <path d="m263.182343,186.005615c0.002167,6.889343 -5.901337,12.475433 -13.184402,12.475433c-7.283051,0 -13.186539,-5.58609 -13.184357,-12.475433c-0.002182,-6.88942 5.901306,-12.475525 13.184357,-12.475525c7.283066,0 13.186569,5.586105 13.184402,12.475525z" id="path3161" stroke-miterlimit="4" stroke-linejoin="round" stroke-linecap="round" stroke-width="47.666691" fill-rule="nonzero" fill="#000000"/>
  <path d="m185.827728,176.005615c0.002197,6.889343 -5.901321,12.475433 -13.184387,12.475433c-7.283066,0 -13.186539,-5.58609 -13.184357,-12.475433c-0.002182,-6.88942 5.901291,-12.475525 13.184357,-12.475525c7.283066,0 13.186584,5.586105 13.184387,12.475525z" id="path3163" stroke-miterlimit="4" stroke-linejoin="round" stroke-linecap="round" stroke-width="47.666691" fill-rule="nonzero" fill="#000000"/>
  <path d="m252.144775,105.629333c-3.478638,-17.159843 21.961182,-60.117825 74.515656,-76.138954c36.156311,-11.022169 97.699646,2.033871 103.541321,68.068779c-23.526215,-38.044209 -65.23526,-47.120277 -85.00589,-38.061939c-39.674408,18.177631 -21.781097,56.917324 -40.774445,67.123585c-17.681335,9.501205 -48.670624,-3.203453 -52.276642,-20.99147z" id="path3179" stroke-miterlimit="4" stroke-linejoin="round" stroke-width="4" stroke="#000000" fill-rule="evenodd" fill="#6c5d53" transform="rotate(11.6121, 341.014, 77.9298)"/>
  <path d="m200.744217,460.781555c0,15.008423 -25.595306,15.488159 -57.132309,15.488159c-31.537056,0 -57.132355,1.144897 -57.132355,-15.488159c0,-29.24823 25.595299,-52.985931 57.132355,-52.985931c31.537003,0 57.132309,23.737701 57.132309,52.985931z" id="path3329" stroke-miterlimit="4" stroke-linejoin="round" stroke-linecap="round" stroke-width="4" stroke="#000000" fill-rule="nonzero" fill="#332e2e"/>
  <path d="m121.637947,475.277588c0,-27.022095 16.480461,-43.651123 16.480461,-43.651123c0,0 -6.592194,22.864838 -5.4935,43.651123l-10.986961,0z" id="path3331" stroke-miterlimit="4" stroke-linejoin="round" stroke-width="4" stroke="#000000" fill-rule="evenodd" fill-opacity="0.313725" fill="#000000"/>
  <path d="m226.606674,249.105804c-4.00148,6.559418 -11.344818,9.639221 -16.400101,6.878296c-5.055298,-2.760864 -5.907333,-10.31662 -1.902893,-16.87439c4.00148,-6.559387 11.344879,-9.639191 16.400146,-6.878326c5.055313,2.760925 5.907288,10.31665 1.902847,16.87442z" id="path2398" stroke-miterlimit="4" stroke-linejoin="round" stroke-linecap="round" stroke-width="47.666691" fill-rule="nonzero" fill="#000000"/>
  <path d="m178.470947,246.105804c4.00148,6.559418 11.344879,9.639221 16.400131,6.878296c5.055328,-2.760864 5.907303,-10.31662 1.902847,-16.87439c-4.00148,-6.559387 -11.344818,-9.639191 -16.400131,-6.878326c-5.055252,2.760925 -5.907303,10.31665 -1.902847,16.87442z" id="path2412" stroke-miterlimit="4" stroke-linejoin="round" stroke-linecap="round" stroke-width="47.666691" fill-rule="nonzero" fill="#000000"/>
  <path d="m227.056107,73.629333c3.478653,-17.159843 -21.961166,-60.117824 -74.515656,-76.138953c-36.156258,-11.02217 -97.6996,2.03387 -103.541271,68.068778c23.526249,-38.044209 65.235249,-47.120277 85.005917,-38.061939c39.674377,18.177631 21.781036,56.917324 40.77446,67.123585c17.68129,9.501205 48.670609,-3.203453 52.27655,-20.99147z" id="path3173" stroke-miterlimit="4" stroke-linejoin="round" stroke-width="4" stroke="#000000" fill-rule="evenodd" fill="#6c5d53" transform="rotate(7.18086, 138.182, 45.9297)"/>
  <title>Layer 1</title>
  <ellipse id="svg_5" cy="133" cx="112" stroke-width="5" stroke="#000000" fill="#FF0000"/>
  <ellipse ry="2" id="svg_6" cy="147" cx="128" stroke-width="5" stroke="#000000" fill="#FF0000"/>
 </g>
</svg>